<svg width="14" height="16" viewBox="0 0 14 16" fill="none" xmlns="http://www.w3.org/2000/svg">
<path d="M0.903266 7.52606C0.778754 7.40154 0.708804 7.23266 0.708804 7.05656C0.708804 6.88047 0.778754 6.71158 0.903266 6.58706L5.59727 1.89606C6.02653 1.45577 6.53894 1.10509 7.10478 0.864369C7.67062 0.623646 8.27863 0.49767 8.89354 0.493747C9.50844 0.489824 10.118 0.608033 10.6869 0.841517C11.2557 1.075 11.7726 1.41911 12.2074 1.85389C12.6423 2.28867 12.9865 2.80546 13.22 3.37429C13.4536 3.94313 13.5719 4.55267 13.5681 5.16758C13.5642 5.78248 13.4384 6.39051 13.1977 6.95639C12.9571 7.52226 12.6065 8.03473 12.1663 8.46406L6.06627 14.5641C5.44133 15.1734 4.60143 15.512 3.72858 15.5064C2.85574 15.5008 2.02025 15.1515 1.40317 14.5342C0.786097 13.9168 0.437138 13.0812 0.431914 12.2083C0.42669 11.3355 0.765623 10.4957 1.37527 9.87106L6.53627 4.71006C6.9112 4.34408 7.41528 4.14063 7.93921 4.14384C8.46315 4.14705 8.9647 4.35665 9.33512 4.7272C9.70554 5.09775 9.91496 5.59938 9.91799 6.12332C9.92101 6.64725 9.71738 7.15126 9.35127 7.52606L5.59727 11.2791C5.47288 11.4034 5.30418 11.4733 5.12827 11.4733C4.95236 11.4733 4.78365 11.4034 4.65927 11.2791C4.53488 11.1547 4.465 10.986 4.465 10.8101C4.465 10.6342 4.53488 10.4654 4.65927 10.3411L8.41227 6.58706C8.47386 6.52547 8.52271 6.45235 8.55604 6.37188C8.58938 6.29141 8.60653 6.20516 8.60653 6.11806C8.60653 6.03096 8.58938 5.94471 8.55604 5.86424C8.52271 5.78377 8.47386 5.71065 8.41227 5.64906C8.35068 5.58747 8.27756 5.53861 8.19709 5.50528C8.11662 5.47195 8.03037 5.45479 7.94327 5.45479C7.85616 5.45479 7.76992 5.47195 7.68945 5.50528C7.60897 5.53861 7.53586 5.58747 7.47427 5.64906L2.31327 10.8101C1.93997 11.1834 1.73026 11.6896 1.73026 12.2176C1.73026 12.479 1.78175 12.7378 1.88178 12.9793C1.98181 13.2208 2.12843 13.4402 2.31327 13.6251C2.4981 13.8099 2.71753 13.9565 2.95903 14.0565C3.20053 14.1566 3.45937 14.2081 3.72077 14.2081C4.24868 14.2081 4.75497 13.9984 5.12827 13.6251L11.2283 7.52506C11.5485 7.21976 11.8044 6.85349 11.981 6.4478C12.1576 6.04212 12.2513 5.60522 12.2565 5.1628C12.2617 4.72038 12.1784 4.28138 12.0115 3.87163C11.8446 3.46189 11.5974 3.08967 11.2844 2.77687C10.9715 2.46408 10.5992 2.21703 10.1894 2.05027C9.77954 1.8835 9.34051 1.80038 8.89809 1.8058C8.45567 1.81123 8.01881 1.90508 7.6132 2.08184C7.20759 2.2586 6.84143 2.51469 6.53627 2.83506L1.84427 7.52606C1.71978 7.65027 1.55112 7.72002 1.37527 7.72002C1.19942 7.72002 1.03075 7.65027 0.906266 7.52606" fill="black" fill-opacity="0.45"/>
</svg>
